<?xml version="1.0" encoding="UTF-8" standalone="no"?><svg xmlns="http://www.w3.org/2000/svg" xmlns:xlink="http://www.w3.org/1999/xlink" contentScriptType="application/ecmascript" contentStyleType="text/css" height="313px" preserveAspectRatio="none" style="width:721px;height:313px;" version="1.1" viewBox="0 0 721 313" width="721px" zoomAndPan="magnify"><defs><filter height="300%" id="fd6j37j" width="300%" x="-1" y="-1"><feGaussianBlur result="blurOut" stdDeviation="2.0"/><feColorMatrix in="blurOut" result="blurOut2" type="matrix" values="0 0 0 0 0 0 0 0 0 0 0 0 0 0 0 0 0 0 .4 0"/><feOffset dx="4.0" dy="4.0" in="blurOut2" result="blurOut3"/><feBlend in="SourceGraphic" in2="blurOut3" mode="normal"/></filter></defs><g><text fill="#000000" font-family="sans-serif" font-size="18" lengthAdjust="spacingAndGlyphs" textLength="356" x="187.5" y="16.708">"groundwork vs AUTOSAR architecture"</text><!--class app--><rect fill="#FEFECE" filter="url(#fd6j37j)" height="53.9375" style="stroke: #A80036; stroke-width: 1.5;" width="101" x="167.5" y="28.9531"/><ellipse cx="182.5" cy="47.9219" fill="#00AAAA" rx="11" ry="11" style="stroke: #A80036; stroke-width: 1.0;"/><path d="M182.6094,43.2656 L181.4531,48.3438 L183.7813,48.3438 L182.6094,43.2656 Z M181.125,41.0313 L184.1094,41.0313 L187.4688,53.4219 L185.0156,53.4219 L184.25,50.3594 L180.9688,50.3594 L180.2188,53.4219 L177.7813,53.4219 L181.125,41.0313 Z "/><text fill="#000000" font-family="sans-serif" font-size="12" lengthAdjust="spacingAndGlyphs" textLength="69" x="196.5" y="45.0918">Application</text><text fill="#000000" font-family="sans-serif" font-size="12" lengthAdjust="spacingAndGlyphs" textLength="53" x="204.5" y="59.0605">Weather</text><line style="stroke: #A80036; stroke-width: 1.5;" x1="168.5" x2="267.5" y1="66.8906" y2="66.8906"/><line style="stroke: #A80036; stroke-width: 1.5;" x1="168.5" x2="267.5" y1="74.8906" y2="74.8906"/><!--class pa--><rect fill="#FEFECE" filter="url(#fd6j37j)" height="53.9375" style="stroke: #A80036; stroke-width: 1.5;" width="108" x="94" y="142.9531"/><ellipse cx="109" cy="161.9219" fill="#FFCC00" rx="11" ry="11" style="stroke: #A80036; stroke-width: 1.0;"/><path d="M108.7969,157.5938 L108.7969,161.2188 L109.7969,161.2188 Q111,161.2188 111.4844,160.8125 Q111.9688,160.4063 111.9688,159.4063 Q111.9688,158.4063 111.4844,158 Q111,157.5938 109.7969,157.5938 L108.7969,157.5938 Z M106.3438,155.5313 L109.7031,155.5313 Q112.2656,155.5313 113.3906,156.4453 Q114.5156,157.3594 114.5156,159.4063 Q114.5156,161.4531 113.3906,162.3672 Q112.2656,163.2813 109.7031,163.2813 L108.7969,163.2813 L108.7969,167.9219 L106.3438,167.9219 L106.3438,155.5313 Z "/><text fill="#000000" font-family="sans-serif" font-size="12" lengthAdjust="spacingAndGlyphs" textLength="38" x="142" y="159.0918">Plugin</text><text fill="#000000" font-family="sans-serif" font-size="12" lengthAdjust="spacingAndGlyphs" textLength="76" x="123" y="173.0605">Registration</text><line style="stroke: #A80036; stroke-width: 1.5;" x1="95" x2="201" y1="180.8906" y2="180.8906"/><line style="stroke: #A80036; stroke-width: 1.5;" x1="95" x2="201" y1="188.8906" y2="188.8906"/><!--class pb--><rect fill="#FEFECE" filter="url(#fd6j37j)" height="53.9375" style="stroke: #A80036; stroke-width: 1.5;" width="99" x="237.5" y="142.9531"/><ellipse cx="252.5" cy="161.9219" fill="#FFCC00" rx="11" ry="11" style="stroke: #A80036; stroke-width: 1.0;"/><path d="M252.2969,157.5938 L252.2969,161.2188 L253.2969,161.2188 Q254.5,161.2188 254.9844,160.8125 Q255.4688,160.4063 255.4688,159.4063 Q255.4688,158.4063 254.9844,158 Q254.5,157.5938 253.2969,157.5938 L252.2969,157.5938 Z M249.8438,155.5313 L253.2031,155.5313 Q255.7656,155.5313 256.8906,156.4453 Q258.0156,157.3594 258.0156,159.4063 Q258.0156,161.4531 256.8906,162.3672 Q255.7656,163.2813 253.2031,163.2813 L252.2969,163.2813 L252.2969,167.9219 L249.8438,167.9219 L249.8438,155.5313 Z "/><text fill="#000000" font-family="sans-serif" font-size="12" lengthAdjust="spacingAndGlyphs" textLength="38" x="281" y="159.0918">Plugin</text><text fill="#000000" font-family="sans-serif" font-size="12" lengthAdjust="spacingAndGlyphs" textLength="67" x="266.5" y="173.0605">Newsletter</text><line style="stroke: #A80036; stroke-width: 1.5;" x1="238.5" x2="335.5" y1="180.8906" y2="180.8906"/><line style="stroke: #A80036; stroke-width: 1.5;" x1="238.5" x2="335.5" y1="188.8906" y2="188.8906"/><!--class pta--><rect fill="#FEFECE" filter="url(#fd6j37j)" height="48" style="stroke: #A80036; stroke-width: 1.5;" width="106" x="6" y="256.9531"/><ellipse cx="21" cy="272.9531" fill="#AAAAAA" rx="11" ry="11" style="stroke: #A80036; stroke-width: 1.0;"/><path d="M20.7969,268.625 L20.7969,272.25 L21.7969,272.25 Q23,272.25 23.4844,271.8438 Q23.9688,271.4375 23.9688,270.4375 Q23.9688,269.4375 23.4844,269.0313 Q23,268.625 21.7969,268.625 L20.7969,268.625 Z M18.3438,266.5625 L21.7031,266.5625 Q24.2656,266.5625 25.3906,267.4766 Q26.5156,268.3906 26.5156,270.4375 Q26.5156,272.4844 25.3906,273.3984 Q24.2656,274.3125 21.7031,274.3125 L20.7969,274.3125 L20.7969,278.9531 L18.3438,278.9531 L18.3438,266.5625 Z "/><text fill="#000000" font-family="sans-serif" font-size="12" lengthAdjust="spacingAndGlyphs" textLength="74" x="35" y="277.1074">WebPattern</text><line style="stroke: #A80036; stroke-width: 1.5;" x1="7" x2="111" y1="288.9531" y2="288.9531"/><line style="stroke: #A80036; stroke-width: 1.5;" x1="7" x2="111" y1="296.9531" y2="296.9531"/><!--class ptb--><rect fill="#FEFECE" filter="url(#fd6j37j)" height="48" style="stroke: #A80036; stroke-width: 1.5;" width="140" x="147" y="256.9531"/><ellipse cx="162" cy="272.9531" fill="#AAAAAA" rx="11" ry="11" style="stroke: #A80036; stroke-width: 1.0;"/><path d="M161.7969,268.625 L161.7969,272.25 L162.7969,272.25 Q164,272.25 164.4844,271.8438 Q164.9688,271.4375 164.9688,270.4375 Q164.9688,269.4375 164.4844,269.0313 Q164,268.625 162.7969,268.625 L161.7969,268.625 Z M159.3438,266.5625 L162.7031,266.5625 Q165.2656,266.5625 166.3906,267.4766 Q167.5156,268.3906 167.5156,270.4375 Q167.5156,272.4844 166.3906,273.3984 Q165.2656,274.3125 162.7031,274.3125 L161.7969,274.3125 L161.7969,278.9531 L159.3438,278.9531 L159.3438,266.5625 Z "/><text fill="#000000" font-family="sans-serif" font-size="12" lengthAdjust="spacingAndGlyphs" textLength="108" x="176" y="277.1074">DatabasePattern</text><line style="stroke: #A80036; stroke-width: 1.5;" x1="148" x2="286" y1="288.9531" y2="288.9531"/><line style="stroke: #A80036; stroke-width: 1.5;" x1="148" x2="286" y1="296.9531" y2="296.9531"/><!--class ptc--><rect fill="#FEFECE" filter="url(#fd6j37j)" height="48" style="stroke: #A80036; stroke-width: 1.5;" width="112" x="322" y="256.9531"/><ellipse cx="337" cy="272.9531" fill="#AAAAAA" rx="11" ry="11" style="stroke: #A80036; stroke-width: 1.0;"/><path d="M336.7969,268.625 L336.7969,272.25 L337.7969,272.25 Q339,272.25 339.4844,271.8438 Q339.9688,271.4375 339.9688,270.4375 Q339.9688,269.4375 339.4844,269.0313 Q339,268.625 337.7969,268.625 L336.7969,268.625 Z M334.3438,266.5625 L337.7031,266.5625 Q340.2656,266.5625 341.3906,267.4766 Q342.5156,268.3906 342.5156,270.4375 Q342.5156,272.4844 341.3906,273.3984 Q340.2656,274.3125 337.7031,274.3125 L336.7969,274.3125 L336.7969,278.9531 L334.3438,278.9531 L334.3438,266.5625 Z "/><text fill="#000000" font-family="sans-serif" font-size="12" lengthAdjust="spacingAndGlyphs" textLength="80" x="351" y="277.1074">EmailPattern</text><line style="stroke: #A80036; stroke-width: 1.5;" x1="323" x2="433" y1="288.9531" y2="288.9531"/><line style="stroke: #A80036; stroke-width: 1.5;" x1="323" x2="433" y1="296.9531" y2="296.9531"/><!--class ecu--><rect fill="#FEFECE" filter="url(#fd6j37j)" height="48" style="stroke: #A80036; stroke-width: 1.5;" width="57" x="562.5" y="31.9531"/><ellipse cx="577.5" cy="47.9531" fill="#00AAAA" rx="11" ry="11" style="stroke: #A80036; stroke-width: 1.0;"/><path d="M577.6094,43.2969 L576.4531,48.375 L578.7813,48.375 L577.6094,43.2969 Z M576.125,41.0625 L579.1094,41.0625 L582.4688,53.4531 L580.0156,53.4531 L579.25,50.3906 L575.9688,50.3906 L575.2188,53.4531 L572.7813,53.4531 L576.125,41.0625 Z "/><text fill="#000000" font-family="sans-serif" font-size="12" lengthAdjust="spacingAndGlyphs" textLength="25" x="591.5" y="52.1074">ECU</text><line style="stroke: #A80036; stroke-width: 1.5;" x1="563.5" x2="618.5" y1="63.9531" y2="63.9531"/><line style="stroke: #A80036; stroke-width: 1.5;" x1="563.5" x2="618.5" y1="71.9531" y2="71.9531"/><!--class sa--><rect fill="#FEFECE" filter="url(#fd6j37j)" height="48" style="stroke: #A80036; stroke-width: 1.5;" width="71" x="502.5" y="145.9531"/><ellipse cx="517.5" cy="161.9531" fill="#FFCC00" rx="11" ry="11" style="stroke: #A80036; stroke-width: 1.0;"/><path d="M517.2969,157.625 L517.2969,161.25 L518.2969,161.25 Q519.5,161.25 519.9844,160.8438 Q520.4688,160.4375 520.4688,159.4375 Q520.4688,158.4375 519.9844,158.0313 Q519.5,157.625 518.2969,157.625 L517.2969,157.625 Z M514.8438,155.5625 L518.2031,155.5625 Q520.7656,155.5625 521.8906,156.4766 Q523.0156,157.3906 523.0156,159.4375 Q523.0156,161.4844 521.8906,162.3984 Q520.7656,163.3125 518.2031,163.3125 L517.2969,163.3125 L517.2969,167.9531 L514.8438,167.9531 L514.8438,155.5625 Z "/><text fill="#000000" font-family="sans-serif" font-size="12" lengthAdjust="spacingAndGlyphs" textLength="39" x="531.5" y="166.1074">SWC A</text><line style="stroke: #A80036; stroke-width: 1.5;" x1="503.5" x2="572.5" y1="177.9531" y2="177.9531"/><line style="stroke: #A80036; stroke-width: 1.5;" x1="503.5" x2="572.5" y1="185.9531" y2="185.9531"/><!--class sb--><rect fill="#FEFECE" filter="url(#fd6j37j)" height="48" style="stroke: #A80036; stroke-width: 1.5;" width="71" x="608.5" y="145.9531"/><ellipse cx="623.5" cy="161.9531" fill="#FFCC00" rx="11" ry="11" style="stroke: #A80036; stroke-width: 1.0;"/><path d="M623.2969,157.625 L623.2969,161.25 L624.2969,161.25 Q625.5,161.25 625.9844,160.8438 Q626.4688,160.4375 626.4688,159.4375 Q626.4688,158.4375 625.9844,158.0313 Q625.5,157.625 624.2969,157.625 L623.2969,157.625 Z M620.8438,155.5625 L624.2031,155.5625 Q626.7656,155.5625 627.8906,156.4766 Q629.0156,157.3906 629.0156,159.4375 Q629.0156,161.4844 627.8906,162.3984 Q626.7656,163.3125 624.2031,163.3125 L623.2969,163.3125 L623.2969,167.9531 L620.8438,167.9531 L620.8438,155.5625 Z "/><text fill="#000000" font-family="sans-serif" font-size="12" lengthAdjust="spacingAndGlyphs" textLength="39" x="637.5" y="166.1074">SWC B</text><line style="stroke: #A80036; stroke-width: 1.5;" x1="609.5" x2="678.5" y1="177.9531" y2="177.9531"/><line style="stroke: #A80036; stroke-width: 1.5;" x1="609.5" x2="678.5" y1="185.9531" y2="185.9531"/><!--class dcm--><rect fill="#FEFECE" filter="url(#fd6j37j)" height="48" style="stroke: #A80036; stroke-width: 1.5;" width="59" x="469.5" y="256.9531"/><ellipse cx="484.5" cy="272.9531" fill="#AAAAAA" rx="11" ry="11" style="stroke: #A80036; stroke-width: 1.0;"/><path d="M484.2969,268.625 L484.2969,272.25 L485.2969,272.25 Q486.5,272.25 486.9844,271.8438 Q487.4688,271.4375 487.4688,270.4375 Q487.4688,269.4375 486.9844,269.0313 Q486.5,268.625 485.2969,268.625 L484.2969,268.625 Z M481.8438,266.5625 L485.2031,266.5625 Q487.7656,266.5625 488.8906,267.4766 Q490.0156,268.3906 490.0156,270.4375 Q490.0156,272.4844 488.8906,273.3984 Q487.7656,274.3125 485.2031,274.3125 L484.2969,274.3125 L484.2969,278.9531 L481.8438,278.9531 L481.8438,266.5625 Z "/><text fill="#000000" font-family="sans-serif" font-size="12" lengthAdjust="spacingAndGlyphs" textLength="27" x="498.5" y="277.1074">DCM</text><line style="stroke: #A80036; stroke-width: 1.5;" x1="470.5" x2="527.5" y1="288.9531" y2="288.9531"/><line style="stroke: #A80036; stroke-width: 1.5;" x1="470.5" x2="527.5" y1="296.9531" y2="296.9531"/><!--class rte--><rect fill="#FEFECE" filter="url(#fd6j37j)" height="48" style="stroke: #A80036; stroke-width: 1.5;" width="55" x="563.5" y="256.9531"/><ellipse cx="578.5" cy="272.9531" fill="#AAAAAA" rx="11" ry="11" style="stroke: #A80036; stroke-width: 1.0;"/><path d="M578.2969,268.625 L578.2969,272.25 L579.2969,272.25 Q580.5,272.25 580.9844,271.8438 Q581.4688,271.4375 581.4688,270.4375 Q581.4688,269.4375 580.9844,269.0313 Q580.5,268.625 579.2969,268.625 L578.2969,268.625 Z M575.8438,266.5625 L579.2031,266.5625 Q581.7656,266.5625 582.8906,267.4766 Q584.0156,268.3906 584.0156,270.4375 Q584.0156,272.4844 582.8906,273.3984 Q581.7656,274.3125 579.2031,274.3125 L578.2969,274.3125 L578.2969,278.9531 L575.8438,278.9531 L575.8438,266.5625 Z "/><text fill="#000000" font-family="sans-serif" font-size="12" lengthAdjust="spacingAndGlyphs" textLength="23" x="592.5" y="277.1074">RTE</text><line style="stroke: #A80036; stroke-width: 1.5;" x1="564.5" x2="617.5" y1="288.9531" y2="288.9531"/><line style="stroke: #A80036; stroke-width: 1.5;" x1="564.5" x2="617.5" y1="296.9531" y2="296.9531"/><!--class dem--><rect fill="#FEFECE" filter="url(#fd6j37j)" height="48" style="stroke: #A80036; stroke-width: 1.5;" width="59" x="653.5" y="256.9531"/><ellipse cx="668.5" cy="272.9531" fill="#AAAAAA" rx="11" ry="11" style="stroke: #A80036; stroke-width: 1.0;"/><path d="M668.2969,268.625 L668.2969,272.25 L669.2969,272.25 Q670.5,272.25 670.9844,271.8438 Q671.4688,271.4375 671.4688,270.4375 Q671.4688,269.4375 670.9844,269.0313 Q670.5,268.625 669.2969,268.625 L668.2969,268.625 Z M665.8438,266.5625 L669.2031,266.5625 Q671.7656,266.5625 672.8906,267.4766 Q674.0156,268.3906 674.0156,270.4375 Q674.0156,272.4844 672.8906,273.3984 Q671.7656,274.3125 669.2031,274.3125 L668.2969,274.3125 L668.2969,278.9531 L665.8438,278.9531 L665.8438,266.5625 Z "/><text fill="#000000" font-family="sans-serif" font-size="12" lengthAdjust="spacingAndGlyphs" textLength="27" x="682.5" y="277.1074">DEM</text><line style="stroke: #A80036; stroke-width: 1.5;" x1="654.5" x2="711.5" y1="288.9531" y2="288.9531"/><line style="stroke: #A80036; stroke-width: 1.5;" x1="654.5" x2="711.5" y1="296.9531" y2="296.9531"/><path d="M198.893,87.5251 C188.059,104.8591 174.645,126.3211 164.309,142.8581 " fill="none" style="stroke: #A80036; stroke-width: 1.0;"/><polygon fill="#A80036" points="201.588,83.2121,193.426,88.7241,198.938,87.4521,200.21,92.9641,201.588,83.2121" style="stroke: #A80036; stroke-width: 1.0;"/><path d="M236.834,87.5251 C247.514,104.8591 260.736,126.3211 270.924,142.8581 " fill="none" style="stroke: #A80036; stroke-width: 1.0;"/><polygon fill="#A80036" points="234.177,83.2121,235.4924,92.9728,236.7997,87.469,242.3034,88.7764,234.177,83.2121" style="stroke: #A80036; stroke-width: 1.0;"/><path d="M123.491,200.9691 C109.147,218.5375 91.3036,240.3902 78.0245,256.6535 " fill="none" style="stroke: #A80036; stroke-width: 1.0;"/><polygon fill="#A80036" points="126.682,197.0611,117.891,201.5017,123.5193,200.9338,124.0873,206.562,126.682,197.0611" style="stroke: #A80036; stroke-width: 1.0;"/><path d="M167.282,201.4131 C178.354,218.9044 192.042,240.5269 202.251,256.6535 " fill="none" style="stroke: #A80036; stroke-width: 1.0;"/><polygon fill="#A80036" points="164.527,197.0611,165.9614,206.805,167.2015,201.2857,172.7207,202.5258,164.527,197.0611" style="stroke: #A80036; stroke-width: 1.0;"/><path d="M267.438,201.4131 C256.206,218.9044 242.32,240.5269 231.963,256.6535 " fill="none" style="stroke: #A80036; stroke-width: 1.0;"/><polygon fill="#A80036" points="270.233,197.0611,262.0043,202.4731,267.5315,201.2685,268.7361,206.7956,270.233,197.0611" style="stroke: #A80036; stroke-width: 1.0;"/><path d="M312.06,200.9691 C326.726,218.5375 344.97,240.3902 358.548,256.6535 " fill="none" style="stroke: #A80036; stroke-width: 1.0;"/><polygon fill="#A80036" points="308.797,197.0611,311.4937,206.5336,312.0012,200.8995,317.6352,201.4069,308.797,197.0611" style="stroke: #A80036; stroke-width: 1.0;"/><path d="M577.821,84.8031 C568.936,103.5801 557.349,128.0641 548.968,145.7761 " fill="none" style="stroke: #A80036; stroke-width: 1.0;"/><polygon fill="#A80036" points="580.018,80.1591,572.5507,86.5809,577.8779,84.678,579.7808,90.0051,580.018,80.1591" style="stroke: #A80036; stroke-width: 1.0;"/><path d="M604.179,84.8031 C613.064,103.5801 624.651,128.0641 633.032,145.7761 " fill="none" style="stroke: #A80036; stroke-width: 1.0;"/><polygon fill="#A80036" points="601.982,80.1591,602.2192,90.0051,604.1221,84.678,609.4493,86.5809,601.982,80.1591" style="stroke: #A80036; stroke-width: 1.0;"/><path d="M527.968,198.9911 C521.543,216.9496 513.306,239.9703 507.259,256.8703 " fill="none" style="stroke: #A80036; stroke-width: 1.0;"/><polygon fill="#A80036" points="529.729,194.0691,522.9308,201.1954,528.0445,198.7768,530.4631,203.8906,529.729,194.0691" style="stroke: #A80036; stroke-width: 1.0;"/><path d="M551.633,198.9911 C560.365,216.9496 571.559,239.9703 579.776,256.8703 " fill="none" style="stroke: #A80036; stroke-width: 1.0;"/><polygon fill="#A80036" points="549.24,194.0691,549.5803,203.9121,551.4274,198.5653,556.7742,200.4123,549.24,194.0691" style="stroke: #A80036; stroke-width: 1.0;"/><path d="M630.367,198.9911 C621.635,216.9496 610.441,239.9703 602.224,256.8703 " fill="none" style="stroke: #A80036; stroke-width: 1.0;"/><polygon fill="#A80036" points="632.76,194.0691,625.2258,200.4123,630.5726,198.5653,632.4197,203.9121,632.76,194.0691" style="stroke: #A80036; stroke-width: 1.0;"/><path d="M654.032,198.9911 C660.457,216.9496 668.694,239.9703 674.741,256.8703 " fill="none" style="stroke: #A80036; stroke-width: 1.0;"/><polygon fill="#A80036" points="652.271,194.0691,651.5369,203.8906,653.9555,198.7768,659.0692,201.1954,652.271,194.0691" style="stroke: #A80036; stroke-width: 1.0;"/></g></svg>