<?xml version="1.0" encoding="UTF-8" standalone="no"?><svg xmlns="http://www.w3.org/2000/svg" xmlns:xlink="http://www.w3.org/1999/xlink" contentScriptType="application/ecmascript" contentStyleType="text/css" height="601px" preserveAspectRatio="none" style="width:1092px;height:601px;" version="1.1" viewBox="0 0 1092 601" width="1092px" zoomAndPan="magnify"><defs><filter height="300%" id="fv74t86" width="300%" x="-1" y="-1"><feGaussianBlur result="blurOut" stdDeviation="2.0"/><feColorMatrix in="blurOut" result="blurOut2" type="matrix" values="0 0 0 0 0 0 0 0 0 0 0 0 0 0 0 0 0 0 .4 0"/><feOffset dx="4.0" dy="4.0" in="blurOut2" result="blurOut3"/><feBlend in="SourceGraphic" in2="blurOut3" mode="normal"/></filter></defs><g><rect fill="#FFFFFF" filter="url(#fv74t86)" height="161.6641" style="stroke: #000000; stroke-width: 2.0;" width="1070.5" x="13" y="384.625"/><rect fill="#FFFFFF" filter="url(#fv74t86)" height="46.2656" style="stroke: #000000; stroke-width: 2.0;" width="689.5" x="23" y="450.8906"/><line style="stroke: #A80036; stroke-width: 1.0; stroke-dasharray: 5.0,5.0;" x1="57" x2="57" y1="38.2969" y2="563.2891"/><line style="stroke: #A80036; stroke-width: 1.0; stroke-dasharray: 5.0,5.0;" x1="253" x2="253" y1="38.2969" y2="563.2891"/><line style="stroke: #A80036; stroke-width: 1.0; stroke-dasharray: 5.0,5.0;" x1="626.5" x2="626.5" y1="38.2969" y2="563.2891"/><line style="stroke: #A80036; stroke-width: 1.0; stroke-dasharray: 5.0,5.0;" x1="864" x2="864" y1="38.2969" y2="563.2891"/><rect fill="#FEFECE" filter="url(#fv74t86)" height="30.2969" style="stroke: #A80036; stroke-width: 1.5;" width="45" x="33" y="3"/><text fill="#000000" font-family="sans-serif" font-size="14" lengthAdjust="spacingAndGlyphs" textLength="31" x="40" y="22.9951">user</text><rect fill="#FEFECE" filter="url(#fv74t86)" height="30.2969" style="stroke: #A80036; stroke-width: 1.5;" width="45" x="33" y="562.2891"/><text fill="#000000" font-family="sans-serif" font-size="14" lengthAdjust="spacingAndGlyphs" textLength="31" x="40" y="582.2842">user</text><rect fill="#FEFECE" filter="url(#fv74t86)" height="30.2969" style="stroke: #A80036; stroke-width: 1.5;" width="105" x="199" y="3"/><text fill="#000000" font-family="sans-serif" font-size="14" lengthAdjust="spacingAndGlyphs" textLength="91" x="206" y="22.9951">csv_manager</text><rect fill="#FEFECE" filter="url(#fv74t86)" height="30.2969" style="stroke: #A80036; stroke-width: 1.5;" width="105" x="199" y="562.2891"/><text fill="#000000" font-family="sans-serif" font-size="14" lengthAdjust="spacingAndGlyphs" textLength="91" x="206" y="582.2842">csv_manager</text><rect fill="#FEFECE" filter="url(#fv74t86)" height="30.2969" style="stroke: #A80036; stroke-width: 1.5;" width="148" x="550.5" y="3"/><text fill="#000000" font-family="sans-serif" font-size="14" lengthAdjust="spacingAndGlyphs" textLength="134" x="557.5" y="22.9951">csv_watcher_plugin</text><rect fill="#FEFECE" filter="url(#fv74t86)" height="30.2969" style="stroke: #A80036; stroke-width: 1.5;" width="148" x="550.5" y="562.2891"/><text fill="#000000" font-family="sans-serif" font-size="14" lengthAdjust="spacingAndGlyphs" textLength="134" x="557.5" y="582.2842">csv_watcher_plugin</text><rect fill="#FEFECE" filter="url(#fv74t86)" height="30.2969" style="stroke: #A80036; stroke-width: 1.5;" width="197" x="764" y="3"/><text fill="#000000" font-family="sans-serif" font-size="14" lengthAdjust="spacingAndGlyphs" textLength="183" x="771" y="22.9951">csv_watcher_plugin.thread</text><rect fill="#FEFECE" filter="url(#fv74t86)" height="30.2969" style="stroke: #A80036; stroke-width: 1.5;" width="197" x="764" y="562.2891"/><text fill="#000000" font-family="sans-serif" font-size="14" lengthAdjust="spacingAndGlyphs" textLength="183" x="771" y="582.2842">csv_watcher_plugin.thread</text><polygon fill="#A80036" points="241.5,80.2969,251.5,84.2969,241.5,88.2969,245.5,84.2969" style="stroke: #A80036; stroke-width: 1.0;"/><line style="stroke: #A80036; stroke-width: 1.0;" x1="57.5" x2="247.5" y1="84.2969" y2="84.2969"/><text fill="#000000" font-family="sans-serif" font-size="13" font-weight="bold" lengthAdjust="spacingAndGlyphs" textLength="9" x="64.5" y="71.9302">1</text><text fill="#000000" font-family="sans-serif" font-size="13" lengthAdjust="spacingAndGlyphs" textLength="96" x="77.5" y="64.3638">Starts app with</text><text fill="#000000" font-family="sans-serif" font-size="13" lengthAdjust="spacingAndGlyphs" textLength="159" x="77.5" y="79.4966">"csv_watch example.csv"</text><polygon fill="#A80036" points="614.5,109.5625,624.5,113.5625,614.5,117.5625,618.5,113.5625" style="stroke: #A80036; stroke-width: 1.0;"/><line style="stroke: #A80036; stroke-width: 1.0;" x1="253.5" x2="620.5" y1="113.5625" y2="113.5625"/><text fill="#000000" font-family="sans-serif" font-size="13" font-weight="bold" lengthAdjust="spacingAndGlyphs" textLength="9" x="260.5" y="108.6294">2</text><text fill="#000000" font-family="sans-serif" font-size="13" lengthAdjust="spacingAndGlyphs" textLength="184" x="273.5" y="108.6294">csv_watcher_plugin.__init__()</text><polygon fill="#A80036" points="614.5,138.6953,624.5,142.6953,614.5,146.6953,618.5,142.6953" style="stroke: #A80036; stroke-width: 1.0;"/><line style="stroke: #A80036; stroke-width: 1.0;" x1="253.5" x2="620.5" y1="142.6953" y2="142.6953"/><text fill="#000000" font-family="sans-serif" font-size="13" font-weight="bold" lengthAdjust="spacingAndGlyphs" textLength="9" x="260.5" y="137.7622">3</text><text fill="#000000" font-family="sans-serif" font-size="13" lengthAdjust="spacingAndGlyphs" textLength="188" x="273.5" y="137.7622">csv_watcher_plugin.activate()</text><line style="stroke: #A80036; stroke-width: 1.0;" x1="626.5" x2="668.5" y1="171.9609" y2="171.9609"/><line style="stroke: #A80036; stroke-width: 1.0;" x1="668.5" x2="668.5" y1="171.9609" y2="184.9609"/><line style="stroke: #A80036; stroke-width: 1.0;" x1="627.5" x2="668.5" y1="184.9609" y2="184.9609"/><polygon fill="#A80036" points="637.5,180.9609,627.5,184.9609,637.5,188.9609,633.5,184.9609" style="stroke: #A80036; stroke-width: 1.0;"/><text fill="#000000" font-family="sans-serif" font-size="13" font-weight="bold" lengthAdjust="spacingAndGlyphs" textLength="9" x="633.5" y="166.895">4</text><text fill="#000000" font-family="sans-serif" font-size="13" lengthAdjust="spacingAndGlyphs" textLength="200" x="646.5" y="166.895">Register command "csv_watch"</text><line style="stroke: #A80036; stroke-width: 1.0;" x1="253.5" x2="295.5" y1="214.0938" y2="214.0938"/><line style="stroke: #A80036; stroke-width: 1.0;" x1="295.5" x2="295.5" y1="214.0938" y2="227.0938"/><line style="stroke: #A80036; stroke-width: 1.0;" x1="254.5" x2="295.5" y1="227.0938" y2="227.0938"/><polygon fill="#A80036" points="264.5,223.0938,254.5,227.0938,264.5,231.0938,260.5,227.0938" style="stroke: #A80036; stroke-width: 1.0;"/><text fill="#000000" font-family="sans-serif" font-size="13" font-weight="bold" lengthAdjust="spacingAndGlyphs" textLength="9" x="260.5" y="209.0278">5</text><text fill="#000000" font-family="sans-serif" font-size="13" lengthAdjust="spacingAndGlyphs" textLength="54" x="273.5" y="209.0278">starts cli</text><line style="stroke: #A80036; stroke-width: 1.0;" x1="253.5" x2="295.5" y1="256.2266" y2="256.2266"/><line style="stroke: #A80036; stroke-width: 1.0;" x1="295.5" x2="295.5" y1="256.2266" y2="269.2266"/><line style="stroke: #A80036; stroke-width: 1.0;" x1="254.5" x2="295.5" y1="269.2266" y2="269.2266"/><polygon fill="#A80036" points="264.5,265.2266,254.5,269.2266,264.5,273.2266,260.5,269.2266" style="stroke: #A80036; stroke-width: 1.0;"/><text fill="#000000" font-family="sans-serif" font-size="13" font-weight="bold" lengthAdjust="spacingAndGlyphs" textLength="9" x="260.5" y="251.1606">6</text><text fill="#000000" font-family="sans-serif" font-size="13" lengthAdjust="spacingAndGlyphs" textLength="162" x="273.5" y="251.1606">cli checks user command</text><polygon fill="#A80036" points="614.5,294.2266,624.5,298.2266,614.5,302.2266,618.5,298.2266" style="stroke: #A80036; stroke-width: 1.0;"/><line style="stroke: #A80036; stroke-width: 1.0;" x1="253.5" x2="620.5" y1="298.2266" y2="298.2266"/><text fill="#000000" font-family="sans-serif" font-size="13" font-weight="bold" lengthAdjust="spacingAndGlyphs" textLength="9" x="260.5" y="293.2935">7</text><text fill="#000000" font-family="sans-serif" font-size="13" lengthAdjust="spacingAndGlyphs" textLength="336" x="273.5" y="293.2935">cli calls csv_watcher_plugin.csv_watcher_command()</text><line style="stroke: #A80036; stroke-width: 1.0;" x1="626.5" x2="668.5" y1="327.4922" y2="327.4922"/><line style="stroke: #A80036; stroke-width: 1.0;" x1="668.5" x2="668.5" y1="327.4922" y2="340.4922"/><line style="stroke: #A80036; stroke-width: 1.0;" x1="627.5" x2="668.5" y1="340.4922" y2="340.4922"/><polygon fill="#A80036" points="637.5,336.4922,627.5,340.4922,637.5,344.4922,633.5,340.4922" style="stroke: #A80036; stroke-width: 1.0;"/><text fill="#000000" font-family="sans-serif" font-size="13" font-weight="bold" lengthAdjust="spacingAndGlyphs" textLength="9" x="633.5" y="322.4263">8</text><text fill="#000000" font-family="sans-serif" font-size="13" lengthAdjust="spacingAndGlyphs" textLength="211" x="646.5" y="322.4263">Register new thread "csv_thread"</text><polygon fill="#A80036" points="852.5,365.4922,862.5,369.4922,852.5,373.4922,856.5,369.4922" style="stroke: #A80036; stroke-width: 1.0;"/><line style="stroke: #A80036; stroke-width: 1.0;" x1="626.5" x2="858.5" y1="369.4922" y2="369.4922"/><text fill="#000000" font-family="sans-serif" font-size="13" font-weight="bold" lengthAdjust="spacingAndGlyphs" textLength="9" x="633.5" y="364.5591">9</text><text fill="#000000" font-family="sans-serif" font-size="13" lengthAdjust="spacingAndGlyphs" textLength="162" x="646.5" y="364.5591">Start thread "csv_thread"</text><rect fill="none" height="161.6641" style="stroke: #000000; stroke-width: 2.0;" width="1070.5" x="13" y="384.625"/><polygon fill="#EEEEEE" points="13,384.625,90,384.625,90,391.625,80,401.625,13,401.625,13,384.625" style="stroke: #000000; stroke-width: 2.0;"/><text fill="#000000" font-family="sans-serif" font-size="13" font-weight="bold" lengthAdjust="spacingAndGlyphs" textLength="32" x="28" y="397.6919">loop</text><text fill="#000000" font-family="sans-serif" font-size="11" font-weight="bold" lengthAdjust="spacingAndGlyphs" textLength="60" x="105" y="396.8354">[endless]</text><line style="stroke: #A80036; stroke-width: 1.0;" x1="864.5" x2="906.5" y1="422.8906" y2="422.8906"/><line style="stroke: #A80036; stroke-width: 1.0;" x1="906.5" x2="906.5" y1="422.8906" y2="435.8906"/><line style="stroke: #A80036; stroke-width: 1.0;" x1="865.5" x2="906.5" y1="435.8906" y2="435.8906"/><polygon fill="#A80036" points="875.5,431.8906,865.5,435.8906,875.5,439.8906,871.5,435.8906" style="stroke: #A80036; stroke-width: 1.0;"/><text fill="#000000" font-family="sans-serif" font-size="13" font-weight="bold" lengthAdjust="spacingAndGlyphs" textLength="18" x="871.5" y="417.8247">10</text><text fill="#000000" font-family="sans-serif" font-size="13" lengthAdjust="spacingAndGlyphs" textLength="178" x="893.5" y="417.8247">Check given file for changes</text><rect fill="none" height="46.2656" style="stroke: #000000; stroke-width: 2.0;" width="689.5" x="23" y="450.8906"/><polygon fill="#EEEEEE" points="23,450.8906,193,450.8906,193,457.8906,183,467.8906,23,467.8906,23,450.8906" style="stroke: #000000; stroke-width: 2.0;"/><text fill="#000000" font-family="sans-serif" font-size="13" font-weight="bold" lengthAdjust="spacingAndGlyphs" textLength="125" x="38" y="463.9575">if changes found</text><polygon fill="#A80036" points="68.5,485.0234,58.5,489.0234,68.5,493.0234,64.5,489.0234" style="stroke: #A80036; stroke-width: 1.0;"/><line style="stroke: #A80036; stroke-width: 1.0;" x1="62.5" x2="625.5" y1="489.0234" y2="489.0234"/><text fill="#000000" font-family="sans-serif" font-size="13" font-weight="bold" lengthAdjust="spacingAndGlyphs" textLength="18" x="74.5" y="484.0903">11</text><text fill="#000000" font-family="sans-serif" font-size="13" lengthAdjust="spacingAndGlyphs" textLength="229" x="96.5" y="484.0903">Log message "csv file has changed"</text><line style="stroke: #A80036; stroke-width: 1.0;" x1="864.5" x2="906.5" y1="525.2891" y2="525.2891"/><line style="stroke: #A80036; stroke-width: 1.0;" x1="906.5" x2="906.5" y1="525.2891" y2="538.2891"/><line style="stroke: #A80036; stroke-width: 1.0;" x1="865.5" x2="906.5" y1="538.2891" y2="538.2891"/><polygon fill="#A80036" points="875.5,534.2891,865.5,538.2891,875.5,542.2891,871.5,538.2891" style="stroke: #A80036; stroke-width: 1.0;"/><text fill="#000000" font-family="sans-serif" font-size="13" font-weight="bold" lengthAdjust="spacingAndGlyphs" textLength="18" x="871.5" y="520.2231">12</text><text fill="#000000" font-family="sans-serif" font-size="13" lengthAdjust="spacingAndGlyphs" textLength="104" x="893.5" y="520.2231">Sleep x seconds</text></g></svg>