<?xml version="1.0" encoding="UTF-8" standalone="no"?><svg xmlns="http://www.w3.org/2000/svg" xmlns:xlink="http://www.w3.org/1999/xlink" contentScriptType="application/ecmascript" contentStyleType="text/css" height="291px" preserveAspectRatio="none" style="width:352px;height:291px;" version="1.1" viewBox="0 0 352 291" width="352px" zoomAndPan="magnify"><defs/><g><!--class CsvManager--><a target="_top" xlink:actuate="onRequest" xlink:href="http://www.bmw.com" xlink:show="new" xlink:title="http://www.bmw.com" xlink:type="simple"><rect fill="#FEFECE" height="48" style="stroke: #A80036; stroke-width: 1.5;" width="108" x="140.5" y="8"/><ellipse cx="155.5" cy="24" fill="#ADD1B2" rx="11" ry="11" style="stroke: #A80036; stroke-width: 1.0;"/><path d="M158.4688,29.6406 Q157.8906,29.9375 157.25,30.0859 Q156.6094,30.2344 155.9063,30.2344 Q153.4063,30.2344 152.0859,28.5859 Q150.7656,26.9375 150.7656,23.8125 Q150.7656,20.6875 152.0859,19.0313 Q153.4063,17.375 155.9063,17.375 Q156.6094,17.375 157.2578,17.5313 Q157.9063,17.6875 158.4688,17.9844 L158.4688,20.7031 Q157.8438,20.125 157.25,19.8516 Q156.6563,19.5781 156.0313,19.5781 Q154.6875,19.5781 154,20.6484 Q153.3125,21.7188 153.3125,23.8125 Q153.3125,25.9063 154,26.9766 Q154.6875,28.0469 156.0313,28.0469 Q156.6563,28.0469 157.25,27.7734 Q157.8438,27.5 158.4688,26.9219 L158.4688,29.6406 Z "/><text fill="#000000" font-family="sans-serif" font-size="12" lengthAdjust="spacingAndGlyphs" textLength="76" x="169.5" y="28.1543">CsvManager</text><line style="stroke: #A80036; stroke-width: 1.5;" x1="141.5" x2="247.5" y1="40" y2="40"/><line style="stroke: #A80036; stroke-width: 1.5;" x1="141.5" x2="247.5" y1="48" y2="48"/></a><!--class CsvWatcher--><rect fill="#FEFECE" height="48" style="stroke: #A80036; stroke-width: 1.5;" width="105" x="6" y="133"/><ellipse cx="21" cy="149" fill="#ADD1B2" rx="11" ry="11" style="stroke: #A80036; stroke-width: 1.0;"/><path d="M23.9688,154.6406 Q23.3906,154.9375 22.75,155.0859 Q22.1094,155.2344 21.4063,155.2344 Q18.9063,155.2344 17.5859,153.5859 Q16.2656,151.9375 16.2656,148.8125 Q16.2656,145.6875 17.5859,144.0313 Q18.9063,142.375 21.4063,142.375 Q22.1094,142.375 22.7578,142.5313 Q23.4063,142.6875 23.9688,142.9844 L23.9688,145.7031 Q23.3438,145.125 22.75,144.8516 Q22.1563,144.5781 21.5313,144.5781 Q20.1875,144.5781 19.5,145.6484 Q18.8125,146.7188 18.8125,148.8125 Q18.8125,150.9063 19.5,151.9766 Q20.1875,153.0469 21.5313,153.0469 Q22.1563,153.0469 22.75,152.7734 Q23.3438,152.5 23.9688,151.9219 L23.9688,154.6406 Z "/><text fill="#000000" font-family="sans-serif" font-size="12" lengthAdjust="spacingAndGlyphs" textLength="73" x="35" y="153.1543">CsvWatcher</text><line style="stroke: #A80036; stroke-width: 1.5;" x1="7" x2="110" y1="165" y2="165"/><line style="stroke: #A80036; stroke-width: 1.5;" x1="7" x2="110" y1="173" y2="173"/><!--class CsvHistory--><rect fill="#FEFECE" height="48" style="stroke: #A80036; stroke-width: 1.5;" width="96" x="146.5" y="133"/><ellipse cx="161.5" cy="149" fill="#ADD1B2" rx="11" ry="11" style="stroke: #A80036; stroke-width: 1.0;"/><path d="M164.4688,154.6406 Q163.8906,154.9375 163.25,155.0859 Q162.6094,155.2344 161.9063,155.2344 Q159.4063,155.2344 158.0859,153.5859 Q156.7656,151.9375 156.7656,148.8125 Q156.7656,145.6875 158.0859,144.0313 Q159.4063,142.375 161.9063,142.375 Q162.6094,142.375 163.2578,142.5313 Q163.9063,142.6875 164.4688,142.9844 L164.4688,145.7031 Q163.8438,145.125 163.25,144.8516 Q162.6563,144.5781 162.0313,144.5781 Q160.6875,144.5781 160,145.6484 Q159.3125,146.7188 159.3125,148.8125 Q159.3125,150.9063 160,151.9766 Q160.6875,153.0469 162.0313,153.0469 Q162.6563,153.0469 163.25,152.7734 Q163.8438,152.5 164.4688,151.9219 L164.4688,154.6406 Z "/><text fill="#000000" font-family="sans-serif" font-size="12" lengthAdjust="spacingAndGlyphs" textLength="64" x="175.5" y="153.1543">CsvHistory</text><line style="stroke: #A80036; stroke-width: 1.5;" x1="147.5" x2="241.5" y1="165" y2="165"/><line style="stroke: #A80036; stroke-width: 1.5;" x1="147.5" x2="241.5" y1="173" y2="173"/><!--class CsvDiff--><rect fill="#FEFECE" height="48" style="stroke: #A80036; stroke-width: 1.5;" width="73" x="278" y="133"/><ellipse cx="293" cy="149" fill="#ADD1B2" rx="11" ry="11" style="stroke: #A80036; stroke-width: 1.0;"/><path d="M295.9688,154.6406 Q295.3906,154.9375 294.75,155.0859 Q294.1094,155.2344 293.4063,155.2344 Q290.9063,155.2344 289.5859,153.5859 Q288.2656,151.9375 288.2656,148.8125 Q288.2656,145.6875 289.5859,144.0313 Q290.9063,142.375 293.4063,142.375 Q294.1094,142.375 294.7578,142.5313 Q295.4063,142.6875 295.9688,142.9844 L295.9688,145.7031 Q295.3438,145.125 294.75,144.8516 Q294.1563,144.5781 293.5313,144.5781 Q292.1875,144.5781 291.5,145.6484 Q290.8125,146.7188 290.8125,148.8125 Q290.8125,150.9063 291.5,151.9766 Q292.1875,153.0469 293.5313,153.0469 Q294.1563,153.0469 294.75,152.7734 Q295.3438,152.5 295.9688,151.9219 L295.9688,154.6406 Z "/><text fill="#000000" font-family="sans-serif" font-size="12" lengthAdjust="spacingAndGlyphs" textLength="41" x="307" y="153.1543">CsvDiff</text><line style="stroke: #A80036; stroke-width: 1.5;" x1="279" x2="350" y1="165" y2="165"/><line style="stroke: #A80036; stroke-width: 1.5;" x1="279" x2="350" y1="173" y2="173"/><!--class CsvWatchPattern--><rect fill="#FEFECE" height="48" style="stroke: #A80036; stroke-width: 1.5;" width="139" x="125" y="242"/><ellipse cx="140" cy="258" fill="#ADD1B2" rx="11" ry="11" style="stroke: #A80036; stroke-width: 1.0;"/><path d="M142.9688,263.6406 Q142.3906,263.9375 141.75,264.0859 Q141.1094,264.2344 140.4063,264.2344 Q137.9063,264.2344 136.5859,262.5859 Q135.2656,260.9375 135.2656,257.8125 Q135.2656,254.6875 136.5859,253.0313 Q137.9063,251.375 140.4063,251.375 Q141.1094,251.375 141.7578,251.5313 Q142.4063,251.6875 142.9688,251.9844 L142.9688,254.7031 Q142.3438,254.125 141.75,253.8516 Q141.1563,253.5781 140.5313,253.5781 Q139.1875,253.5781 138.5,254.6484 Q137.8125,255.7188 137.8125,257.8125 Q137.8125,259.9063 138.5,260.9766 Q139.1875,262.0469 140.5313,262.0469 Q141.1563,262.0469 141.75,261.7734 Q142.3438,261.5 142.9688,260.9219 L142.9688,263.6406 Z "/><text fill="#000000" font-family="sans-serif" font-size="12" lengthAdjust="spacingAndGlyphs" textLength="107" x="154" y="262.1543">CsvWatchPattern</text><line style="stroke: #A80036; stroke-width: 1.5;" x1="126" x2="263" y1="274" y2="274"/><line style="stroke: #A80036; stroke-width: 1.5;" x1="126" x2="263" y1="282" y2="282"/><a target="_top" xlink:actuate="onRequest" xlink:href="http://www.test.de" xlink:show="new" xlink:title="http://www.test.de" xlink:type="simple"><path d="M168.109,56.101 C157.607,65.35 145.44,76.132 134.5,86 C118.794,100.167 101.4324,116.134 87.2729,129.238 " fill="none" style="stroke: #A80036; stroke-width: 1.0;"/><polygon fill="#A80036" points="83.3681,132.854,92.6894,129.6737,87.0367,129.4567,87.2537,123.804,83.3681,132.854" style="stroke: #A80036; stroke-width: 1.0;"/><text fill="#000000" font-family="sans-serif" font-size="13" lengthAdjust="spacingAndGlyphs" textLength="50" x="135.5" y="99.0669">test me</text></a><path d="M194.5,56.135 C194.5,76.494 194.5,106.191 194.5,127.908 " fill="none" style="stroke: #A80036; stroke-width: 1.0;"/><polygon fill="#A80036" points="194.5,132.968,198.5,123.968,194.5,127.968,190.5,123.968,194.5,132.968" style="stroke: #A80036; stroke-width: 1.0;"/><path d="M217.071,56.135 C237.352,76.923 267.132,107.448 288.424,129.272 " fill="none" style="stroke: #A80036; stroke-width: 1.0;"/><polygon fill="#A80036" points="292.03,132.968,288.6061,123.7334,288.5376,129.3899,282.8811,129.3213,292.03,132.968" style="stroke: #A80036; stroke-width: 1.0;"/><path d="M88.01,181.217 C109.485,198.1133 138.597,221.0174 160.955,238.6079 " fill="none" style="stroke: #A80036; stroke-width: 1.0;"/><polygon fill="#A80036" points="165.048,241.8279,160.4476,233.1195,161.1183,238.7364,155.5013,239.4071,165.048,241.8279" style="stroke: #A80036; stroke-width: 1.0;"/><path d="M194.5,181.217 C194.5,197.4823 194.5,219.3151 194.5,236.6155 " fill="none" style="stroke: #A80036; stroke-width: 1.0;"/><polygon fill="#A80036" points="194.5,241.8279,198.5,232.8279,194.5,236.8279,190.5,232.8279,194.5,241.8279" style="stroke: #A80036; stroke-width: 1.0;"/><path d="M288.462,181.217 C269.592,198.0432 244.039,220.8275 224.345,238.3886 " fill="none" style="stroke: #A80036; stroke-width: 1.0;"/><polygon fill="#A80036" points="220.487,241.8279,229.8667,238.8243,224.2191,238.5005,224.5429,232.853,220.487,241.8279" style="stroke: #A80036; stroke-width: 1.0;"/></g></svg>