<?xml version="1.0" encoding="UTF-8" standalone="no"?><svg xmlns="http://www.w3.org/2000/svg" xmlns:xlink="http://www.w3.org/1999/xlink" contentScriptType="application/ecmascript" contentStyleType="text/css" height="273px" preserveAspectRatio="none" style="width:228px;height:273px;" version="1.1" viewBox="0 0 228 273" width="228px" zoomAndPan="magnify"><defs/><g><!--class cf--><rect fill="#FEFECE" height="48" style="stroke: #A80036; stroke-width: 1.5;" width="74" x="84.5" y="8"/><ellipse cx="99.5" cy="24" fill="#ADD1B2" rx="11" ry="11" style="stroke: #A80036; stroke-width: 1.0;"/><path d="M102.4688,29.6406 Q101.8906,29.9375 101.25,30.0859 Q100.6094,30.2344 99.9063,30.2344 Q97.4063,30.2344 96.0859,28.5859 Q94.7656,26.9375 94.7656,23.8125 Q94.7656,20.6875 96.0859,19.0313 Q97.4063,17.375 99.9063,17.375 Q100.6094,17.375 101.2578,17.5313 Q101.9063,17.6875 102.4688,17.9844 L102.4688,20.7031 Q101.8438,20.125 101.25,19.8516 Q100.6563,19.5781 100.0313,19.5781 Q98.6875,19.5781 98,20.6484 Q97.3125,21.7188 97.3125,23.8125 Q97.3125,25.9063 98,26.9766 Q98.6875,28.0469 100.0313,28.0469 Q100.6563,28.0469 101.25,27.7734 Q101.8438,27.5 102.4688,26.9219 L102.4688,29.6406 Z "/><text fill="#000000" font-family="sans-serif" font-size="12" lengthAdjust="spacingAndGlyphs" textLength="42" x="113.5" y="28.1543">CsvFile</text><line style="stroke: #A80036; stroke-width: 1.5;" x1="85.5" x2="157.5" y1="40" y2="40"/><line style="stroke: #A80036; stroke-width: 1.5;" x1="85.5" x2="157.5" y1="48" y2="48"/><!--class v--><rect fill="#FEFECE" height="48" style="stroke: #A80036; stroke-width: 1.5;" width="79" x="82" y="116"/><ellipse cx="97" cy="132" fill="#ADD1B2" rx="11" ry="11" style="stroke: #A80036; stroke-width: 1.0;"/><path d="M99.9688,137.6406 Q99.3906,137.9375 98.75,138.0859 Q98.1094,138.2344 97.4063,138.2344 Q94.9063,138.2344 93.5859,136.5859 Q92.2656,134.9375 92.2656,131.8125 Q92.2656,128.6875 93.5859,127.0313 Q94.9063,125.375 97.4063,125.375 Q98.1094,125.375 98.7578,125.5313 Q99.4063,125.6875 99.9688,125.9844 L99.9688,128.7031 Q99.3438,128.125 98.75,127.8516 Q98.1563,127.5781 97.5313,127.5781 Q96.1875,127.5781 95.5,128.6484 Q94.8125,129.7188 94.8125,131.8125 Q94.8125,133.9063 95.5,134.9766 Q96.1875,136.0469 97.5313,136.0469 Q98.1563,136.0469 98.75,135.7734 Q99.3438,135.5 99.9688,134.9219 L99.9688,137.6406 Z "/><text fill="#000000" font-family="sans-serif" font-size="12" lengthAdjust="spacingAndGlyphs" textLength="47" x="111" y="136.1543">Version</text><line style="stroke: #A80036; stroke-width: 1.5;" x1="83" x2="160" y1="148" y2="148"/><line style="stroke: #A80036; stroke-width: 1.5;" x1="83" x2="160" y1="156" y2="156"/><!--class m--><rect fill="#FEFECE" height="48" style="stroke: #A80036; stroke-width: 1.5;" width="103" x="6" y="224"/><ellipse cx="21" cy="240" fill="#ADD1B2" rx="11" ry="11" style="stroke: #A80036; stroke-width: 1.0;"/><path d="M23.9688,245.6406 Q23.3906,245.9375 22.75,246.0859 Q22.1094,246.2344 21.4063,246.2344 Q18.9063,246.2344 17.5859,244.5859 Q16.2656,242.9375 16.2656,239.8125 Q16.2656,236.6875 17.5859,235.0313 Q18.9063,233.375 21.4063,233.375 Q22.1094,233.375 22.7578,233.5313 Q23.4063,233.6875 23.9688,233.9844 L23.9688,236.7031 Q23.3438,236.125 22.75,235.8516 Q22.1563,235.5781 21.5313,235.5781 Q20.1875,235.5781 19.5,236.6484 Q18.8125,237.7188 18.8125,239.8125 Q18.8125,241.9063 19.5,242.9766 Q20.1875,244.0469 21.5313,244.0469 Q22.1563,244.0469 22.75,243.7734 Q23.3438,243.5 23.9688,242.9219 L23.9688,245.6406 Z "/><text fill="#000000" font-family="sans-serif" font-size="12" lengthAdjust="spacingAndGlyphs" textLength="71" x="35" y="244.1543">MissingRow</text><line style="stroke: #A80036; stroke-width: 1.5;" x1="7" x2="108" y1="256" y2="256"/><line style="stroke: #A80036; stroke-width: 1.5;" x1="7" x2="108" y1="264" y2="264"/><!--class n--><rect fill="#FEFECE" height="48" style="stroke: #A80036; stroke-width: 1.5;" width="83" x="144" y="224"/><ellipse cx="159" cy="240" fill="#ADD1B2" rx="11" ry="11" style="stroke: #A80036; stroke-width: 1.0;"/><path d="M161.9688,245.6406 Q161.3906,245.9375 160.75,246.0859 Q160.1094,246.2344 159.4063,246.2344 Q156.9063,246.2344 155.5859,244.5859 Q154.2656,242.9375 154.2656,239.8125 Q154.2656,236.6875 155.5859,235.0313 Q156.9063,233.375 159.4063,233.375 Q160.1094,233.375 160.7578,233.5313 Q161.4063,233.6875 161.9688,233.9844 L161.9688,236.7031 Q161.3438,236.125 160.75,235.8516 Q160.1563,235.5781 159.5313,235.5781 Q158.1875,235.5781 157.5,236.6484 Q156.8125,237.7188 156.8125,239.8125 Q156.8125,241.9063 157.5,242.9766 Q158.1875,244.0469 159.5313,244.0469 Q160.1563,244.0469 160.75,243.7734 Q161.3438,243.5 161.9688,242.9219 L161.9688,245.6406 Z "/><text fill="#000000" font-family="sans-serif" font-size="12" lengthAdjust="spacingAndGlyphs" textLength="51" x="173" y="244.1543">NewRow</text><line style="stroke: #A80036; stroke-width: 1.5;" x1="145" x2="226" y1="256" y2="256"/><line style="stroke: #A80036; stroke-width: 1.5;" x1="145" x2="226" y1="264" y2="264"/><path d="M121.5,61.131 C121.5,78.154 121.5,99.604 121.5,115.678 " fill="none" style="stroke: #A80036; stroke-width: 1.0;"/><polygon fill="#A80036" points="121.5,56,117.5,65,121.5,61,125.5,65,121.5,56" style="stroke: #A80036; stroke-width: 1.0;"/><path d="M104.7807,168.691 C94.4608,185.7836 81.3701,207.4651 71.581,223.6784 " fill="none" style="stroke: #A80036; stroke-width: 1.0;"/><polygon fill="#A80036" points="107.613,164,99.5373,169.6376,105.0289,168.2805,106.3861,173.7721,107.613,164" style="stroke: #A80036; stroke-width: 1.0;"/><path d="M138.219,168.691 C148.539,185.7836 161.63,207.4651 171.419,223.6784 " fill="none" style="stroke: #A80036; stroke-width: 1.0;"/><polygon fill="#A80036" points="135.387,164,136.6133,173.7722,137.9708,168.2806,143.4624,169.6381,135.387,164" style="stroke: #A80036; stroke-width: 1.0;"/></g></svg>